<?xml version="1.0" encoding="UTF-8" standalone="no"?>
<!DOCTYPE svg PUBLIC "-//W3C//DTD SVG 1.1//EN"
 "http://www.w3.org/Graphics/SVG/1.1/DTD/svg11.dtd">
<!-- Generated by graphviz version 12.2.1 (20241206.2353)
 -->
<!-- Title: include/erminer.hpp Pages: 1 -->
<svg width="904pt" height="193pt"
 viewBox="0.00 0.00 904.38 193.00" xmlns="http://www.w3.org/2000/svg" xmlns:xlink="http://www.w3.org/1999/xlink">
<g id="graph0" class="graph" transform="scale(1 1) rotate(0) translate(4 189)">
<title>include/erminer.hpp</title>
<!-- Node1 -->
<g id="Node000001" class="node">
<title>Node1</title>
<g id="a_Node000001"><a xlink:title="Declaration of the ERMiner class for extracting association rules from sequence databases.">
<polygon fill="#999999" stroke="#666666" points="587.5,-185 487.5,-185 487.5,-165.75 587.5,-165.75 587.5,-185"/>
<text text-anchor="middle" x="537.5" y="-171.5" font-family="Helvetica,sans-Serif" font-size="10.00">include/erminer.hpp</text>
</a>
</g>
</g>
<!-- Node2 -->
<g id="Node000002" class="node">
<title>Node2</title>
<g id="a_Node000002"><a xlink:title=" ">
<polygon fill="#e0e0e0" stroke="#999999" points="413.25,-19.25 359.75,-19.25 359.75,0 413.25,0 413.25,-19.25"/>
<text text-anchor="middle" x="386.5" y="-5.75" font-family="Helvetica,sans-Serif" font-size="10.00">iostream</text>
</a>
</g>
</g>
<!-- Node1&#45;&gt;Node2 -->
<g id="edge1_Node000001_Node000002" class="edge">
<title>Node1&#45;&gt;Node2</title>
<g id="a_edge1_Node000001_Node000002"><a xlink:title=" ">
<path fill="none" stroke="#63b8ff" d="M538.92,-165.35C541.81,-143.6 545.94,-87.73 518.5,-55.25 512.19,-47.78 461.15,-31.93 424.42,-21.28"/>
<polygon fill="#63b8ff" stroke="#63b8ff" points="425.58,-17.97 415.01,-18.57 423.65,-24.7 425.58,-17.97"/>
</a>
</g>
</g>
<!-- Node3 -->
<g id="Node000003" class="node">
<title>Node3</title>
<g id="a_Node000003"><a xlink:title=" ">
<polygon fill="#e0e0e0" stroke="#999999" points="43,-19.25 0,-19.25 0,0 43,0 43,-19.25"/>
<text text-anchor="middle" x="21.5" y="-5.75" font-family="Helvetica,sans-Serif" font-size="10.00">vector</text>
</a>
</g>
</g>
<!-- Node1&#45;&gt;Node3 -->
<g id="edge2_Node000001_Node000003" class="edge">
<title>Node1&#45;&gt;Node3</title>
<g id="a_edge2_Node000001_Node000003"><a xlink:title=" ">
<path fill="none" stroke="#63b8ff" d="M487.21,-171.54C400.14,-166.11 225.19,-152.66 168.5,-129.75 112.38,-107.07 60.89,-55.32 36.44,-28.1"/>
<polygon fill="#63b8ff" stroke="#63b8ff" points="39.18,-25.92 29.95,-20.72 33.92,-30.54 39.18,-25.92"/>
</a>
</g>
</g>
<!-- Node4 -->
<g id="Node000004" class="node">
<title>Node4</title>
<g id="a_Node000004"><a xlink:title=" ">
<polygon fill="#e0e0e0" stroke="#999999" points="246.25,-19.25 216.75,-19.25 216.75,0 246.25,0 246.25,-19.25"/>
<text text-anchor="middle" x="231.5" y="-5.75" font-family="Helvetica,sans-Serif" font-size="10.00">set</text>
</a>
</g>
</g>
<!-- Node1&#45;&gt;Node4 -->
<g id="edge3_Node000001_Node000004" class="edge">
<title>Node1&#45;&gt;Node4</title>
<g id="a_edge3_Node000001_Node000004"><a xlink:title=" ">
<path fill="none" stroke="#63b8ff" d="M487.13,-169.63C391.35,-159.37 189.39,-131.3 154.5,-74.5 139.08,-49.4 177.9,-29.52 205.85,-18.96"/>
<polygon fill="#63b8ff" stroke="#63b8ff" points="206.94,-22.29 215.19,-15.64 204.6,-15.69 206.94,-22.29"/>
</a>
</g>
</g>
<!-- Node5 -->
<g id="Node000005" class="node">
<title>Node5</title>
<g id="a_Node000005"><a xlink:title=" ">
<polygon fill="#e0e0e0" stroke="#999999" points="152.88,-19.25 118.12,-19.25 118.12,0 152.88,0 152.88,-19.25"/>
<text text-anchor="middle" x="135.5" y="-5.75" font-family="Helvetica,sans-Serif" font-size="10.00">map</text>
</a>
</g>
</g>
<!-- Node1&#45;&gt;Node5 -->
<g id="edge4_Node000001_Node000005" class="edge">
<title>Node1&#45;&gt;Node5</title>
<g id="a_edge4_Node000001_Node000005"><a xlink:title=" ">
<path fill="none" stroke="#63b8ff" d="M487.02,-171.62C406.08,-166.56 251.39,-153.98 202.5,-129.75 171.45,-114.37 163.64,-105.16 147.5,-74.5 140.33,-60.88 137.4,-43.64 136.22,-30.5"/>
<polygon fill="#63b8ff" stroke="#63b8ff" points="139.74,-30.7 135.64,-20.93 132.75,-31.12 139.74,-30.7"/>
</a>
</g>
</g>
<!-- Node6 -->
<g id="Node000006" class="node">
<title>Node6</title>
<g id="a_Node000006"><a xlink:title=" ">
<polygon fill="#e0e0e0" stroke="#999999" points="761.88,-129.75 679.12,-129.75 679.12,-110.5 761.88,-110.5 761.88,-129.75"/>
<text text-anchor="middle" x="720.5" y="-116.25" font-family="Helvetica,sans-Serif" font-size="10.00">unordered_map</text>
</a>
</g>
</g>
<!-- Node1&#45;&gt;Node6 -->
<g id="edge5_Node000001_Node000006" class="edge">
<title>Node1&#45;&gt;Node6</title>
<g id="a_edge5_Node000001_Node000006"><a xlink:title=" ">
<path fill="none" stroke="#63b8ff" d="M568.54,-165.34C598.78,-156.54 644.95,-143.11 678.47,-133.36"/>
<polygon fill="#63b8ff" stroke="#63b8ff" points="679.23,-136.78 687.85,-130.63 677.27,-130.06 679.23,-136.78"/>
</a>
</g>
</g>
<!-- Node7 -->
<g id="Node000007" class="node">
<title>Node7</title>
<g id="a_Node000007"><a xlink:title=" ">
<polygon fill="#e0e0e0" stroke="#999999" points="487.38,-19.25 431.62,-19.25 431.62,0 487.38,0 487.38,-19.25"/>
<text text-anchor="middle" x="459.5" y="-5.75" font-family="Helvetica,sans-Serif" font-size="10.00">algorithm</text>
</a>
</g>
</g>
<!-- Node1&#45;&gt;Node7 -->
<g id="edge6_Node000001_Node000007" class="edge">
<title>Node1&#45;&gt;Node7</title>
<g id="a_edge6_Node000001_Node000007"><a xlink:title=" ">
<path fill="none" stroke="#63b8ff" d="M542.09,-165.47C552.2,-144.46 573.83,-90.9 551.5,-55.25 539.87,-36.68 518.06,-25.64 498.59,-19.19"/>
<polygon fill="#63b8ff" stroke="#63b8ff" points="499.83,-15.91 489.25,-16.41 497.84,-22.62 499.83,-15.91"/>
</a>
</g>
</g>
<!-- Node8 -->
<g id="Node000008" class="node">
<title>Node8</title>
<g id="a_Node000008"><a xlink:title=" ">
<polygon fill="#e0e0e0" stroke="#999999" points="579.5,-19.25 533.5,-19.25 533.5,0 579.5,0 579.5,-19.25"/>
<text text-anchor="middle" x="556.5" y="-5.75" font-family="Helvetica,sans-Serif" font-size="10.00">iterator</text>
</a>
</g>
</g>
<!-- Node1&#45;&gt;Node8 -->
<g id="edge7_Node000001_Node000008" class="edge">
<title>Node1&#45;&gt;Node8</title>
<g id="a_edge7_Node000001_Node000008"><a xlink:title=" ">
<path fill="none" stroke="#63b8ff" d="M554.29,-165.32C566.57,-157.66 582.3,-145.42 589.5,-129.75 603.33,-99.66 599.86,-86.7 589.5,-55.25 586.2,-45.23 579.68,-35.62 573.31,-27.9"/>
<polygon fill="#63b8ff" stroke="#63b8ff" points="576.11,-25.78 566.84,-20.65 570.89,-30.44 576.11,-25.78"/>
</a>
</g>
</g>
<!-- Node9 -->
<g id="Node000009" class="node">
<title>Node9</title>
<g id="a_Node000009"><a xlink:title=" ">
<polygon fill="#e0e0e0" stroke="#999999" points="829,-129.75 780,-129.75 780,-110.5 829,-110.5 829,-129.75"/>
<text text-anchor="middle" x="804.5" y="-116.25" font-family="Helvetica,sans-Serif" font-size="10.00">fstream</text>
</a>
</g>
</g>
<!-- Node1&#45;&gt;Node9 -->
<g id="edge8_Node000001_Node000009" class="edge">
<title>Node1&#45;&gt;Node9</title>
<g id="a_edge8_Node000001_Node000009"><a xlink:title=" ">
<path fill="none" stroke="#63b8ff" d="M587.67,-165.65C632.58,-157.65 700.45,-145.06 768.7,-130.04"/>
<polygon fill="#63b8ff" stroke="#63b8ff" points="769.18,-133.52 778.18,-127.94 767.66,-126.69 769.18,-133.52"/>
</a>
</g>
</g>
<!-- Node10 -->
<g id="Node000010" class="node">
<title>Node10</title>
<g id="a_Node000010"><a xlink:title=" ">
<polygon fill="#e0e0e0" stroke="#999999" points="663.12,-19.25 611.88,-19.25 611.88,0 663.12,0 663.12,-19.25"/>
<text text-anchor="middle" x="637.5" y="-5.75" font-family="Helvetica,sans-Serif" font-size="10.00">sstream</text>
</a>
</g>
</g>
<!-- Node1&#45;&gt;Node10 -->
<g id="edge9_Node000001_Node000010" class="edge">
<title>Node1&#45;&gt;Node10</title>
<g id="a_edge9_Node000001_Node000010"><a xlink:title=" ">
<path fill="none" stroke="#63b8ff" d="M559.63,-165.32C574.98,-157.94 594.72,-146.06 606.5,-129.75 628.03,-99.95 634.62,-56.41 636.63,-31.05"/>
<polygon fill="#63b8ff" stroke="#63b8ff" points="640.12,-31.32 637.23,-21.13 633.13,-30.9 640.12,-31.32"/>
</a>
</g>
</g>
<!-- Node11 -->
<g id="Node000011" class="node">
<title>Node11</title>
<g id="a_Node000011"><a xlink:title=" ">
<polygon fill="#e0e0e0" stroke="#999999" points="896.38,-129.75 846.62,-129.75 846.62,-110.5 896.38,-110.5 896.38,-129.75"/>
<text text-anchor="middle" x="871.5" y="-116.25" font-family="Helvetica,sans-Serif" font-size="10.00">iomanip</text>
</a>
</g>
</g>
<!-- Node1&#45;&gt;Node11 -->
<g id="edge10_Node000001_Node000011" class="edge">
<title>Node1&#45;&gt;Node11</title>
<g id="a_edge10_Node000001_Node000011"><a xlink:title=" ">
<path fill="none" stroke="#63b8ff" d="M587.85,-168.6C645.52,-161.62 743.03,-148.67 835.14,-130.27"/>
<polygon fill="#63b8ff" stroke="#63b8ff" points="835.75,-133.72 844.86,-128.3 834.36,-126.86 835.75,-133.72"/>
</a>
</g>
</g>
<!-- Node12 -->
<g id="Node000012" class="node">
<title>Node12</title>
<g id="a_Node000012"><a xlink:title=" ">
<polygon fill="#e0e0e0" stroke="#999999" points="509.75,-74.5 459.25,-74.5 459.25,-55.25 509.75,-55.25 509.75,-74.5"/>
<text text-anchor="middle" x="484.5" y="-61" font-family="Helvetica,sans-Serif" font-size="10.00">numeric</text>
</a>
</g>
</g>
<!-- Node1&#45;&gt;Node12 -->
<g id="edge11_Node000001_Node000012" class="edge">
<title>Node1&#45;&gt;Node12</title>
<g id="a_edge11_Node000001_Node000012"><a xlink:title=" ">
<path fill="none" stroke="#63b8ff" d="M533.16,-165.5C524.62,-148.01 505.45,-108.77 493.88,-85.09"/>
<polygon fill="#63b8ff" stroke="#63b8ff" points="497.1,-83.69 489.56,-76.24 490.81,-86.76 497.1,-83.69"/>
</a>
</g>
</g>
<!-- Node13 -->
<g id="Node000013" class="node">
<title>Node13</title>
<g id="a_Node000013"><a xlink:href="itemset_8hpp.html" target="_top" xlink:title="Declaration of the Itemset class for handling itemsets and their occurrences.">
<polygon fill="white" stroke="#666666" points="365,-74.5 298,-74.5 298,-55.25 365,-55.25 365,-74.5"/>
<text text-anchor="middle" x="331.5" y="-61" font-family="Helvetica,sans-Serif" font-size="10.00">itemset.hpp</text>
</a>
</g>
</g>
<!-- Node1&#45;&gt;Node13 -->
<g id="edge12_Node000001_Node000013" class="edge">
<title>Node1&#45;&gt;Node13</title>
<g id="a_edge12_Node000001_Node000013"><a xlink:title=" ">
<path fill="none" stroke="#63b8ff" d="M520.29,-165.31C484.54,-146.48 402,-103.01 358.87,-80.29"/>
<polygon fill="#63b8ff" stroke="#63b8ff" points="360.62,-77.26 350.14,-75.69 357.36,-83.45 360.62,-77.26"/>
</a>
</g>
</g>
<!-- Node15 -->
<g id="Node000015" class="node">
<title>Node15</title>
<g id="a_Node000015"><a xlink:href="rules_8hpp.html" target="_top" xlink:title="Declaration of the Rule class for association rule representation and evaluation.">
<polygon fill="white" stroke="#666666" points="328.38,-129.75 272.62,-129.75 272.62,-110.5 328.38,-110.5 328.38,-129.75"/>
<text text-anchor="middle" x="300.5" y="-116.25" font-family="Helvetica,sans-Serif" font-size="10.00">rules.hpp</text>
</a>
</g>
</g>
<!-- Node1&#45;&gt;Node15 -->
<g id="edge21_Node000001_Node000015" class="edge">
<title>Node1&#45;&gt;Node15</title>
<g id="a_edge21_Node000001_Node000015"><a xlink:title=" ">
<path fill="none" stroke="#63b8ff" d="M497.03,-165.28C452.97,-155.38 383.02,-139.67 339.54,-129.9"/>
<polygon fill="#63b8ff" stroke="#63b8ff" points="340.55,-126.54 330.03,-127.76 339.02,-133.37 340.55,-126.54"/>
</a>
</g>
</g>
<!-- Node13&#45;&gt;Node2 -->
<g id="edge13_Node000013_Node000002" class="edge">
<title>Node13&#45;&gt;Node2</title>
<g id="a_edge13_Node000013_Node000002"><a xlink:title=" ">
<path fill="none" stroke="#63b8ff" d="M340.58,-55.08C348.34,-47.57 359.71,-36.56 369.2,-27.38"/>
<polygon fill="#63b8ff" stroke="#63b8ff" points="371.38,-30.13 376.13,-20.66 366.51,-25.1 371.38,-30.13"/>
</a>
</g>
</g>
<!-- Node13&#45;&gt;Node3 -->
<g id="edge14_Node000013_Node000003" class="edge">
<title>Node13&#45;&gt;Node3</title>
<g id="a_edge14_Node000013_Node000003"><a xlink:title=" ">
<path fill="none" stroke="#63b8ff" d="M297.73,-58.07C237.84,-47.79 113.72,-26.47 54.43,-16.28"/>
<polygon fill="#63b8ff" stroke="#63b8ff" points="55.08,-12.84 44.63,-14.6 53.89,-19.74 55.08,-12.84"/>
</a>
</g>
</g>
<!-- Node13&#45;&gt;Node4 -->
<g id="edge15_Node000013_Node000004" class="edge">
<title>Node13&#45;&gt;Node4</title>
<g id="a_edge15_Node000013_Node000004"><a xlink:title=" ">
<path fill="none" stroke="#63b8ff" d="M314.54,-54.84C298.68,-46.4 274.8,-33.68 256.71,-24.05"/>
<polygon fill="#63b8ff" stroke="#63b8ff" points="258.39,-20.98 247.92,-19.37 255.1,-27.16 258.39,-20.98"/>
</a>
</g>
</g>
<!-- Node13&#45;&gt;Node5 -->
<g id="edge16_Node000013_Node000005" class="edge">
<title>Node13&#45;&gt;Node5</title>
<g id="a_edge16_Node000013_Node000005"><a xlink:title=" ">
<path fill="none" stroke="#63b8ff" d="M298.25,-54.84C260.67,-44.63 200.09,-28.17 164.4,-18.48"/>
<polygon fill="#63b8ff" stroke="#63b8ff" points="165.35,-15.11 154.78,-15.86 163.52,-21.86 165.35,-15.11"/>
</a>
</g>
</g>
<!-- Node13&#45;&gt;Node7 -->
<g id="edge17_Node000013_Node000007" class="edge">
<title>Node13&#45;&gt;Node7</title>
<g id="a_edge17_Node000013_Node000007"><a xlink:title=" ">
<path fill="none" stroke="#63b8ff" d="M353.21,-54.84C373.53,-46.39 404.15,-33.65 427.31,-24.02"/>
<polygon fill="#63b8ff" stroke="#63b8ff" points="428.39,-27.36 436.28,-20.28 425.71,-20.89 428.39,-27.36"/>
</a>
</g>
</g>
<!-- Node13&#45;&gt;Node8 -->
<g id="edge18_Node000013_Node000008" class="edge">
<title>Node13&#45;&gt;Node8</title>
<g id="a_edge18_Node000013_Node000008"><a xlink:title=" ">
<path fill="none" stroke="#63b8ff" d="M365.18,-55.9C407.43,-45.9 479.47,-28.85 522.07,-18.77"/>
<polygon fill="#63b8ff" stroke="#63b8ff" points="522.85,-22.18 531.78,-16.48 521.24,-15.37 522.85,-22.18"/>
</a>
</g>
</g>
<!-- Node13&#45;&gt;Node10 -->
<g id="edge20_Node000013_Node000010" class="edge">
<title>Node13&#45;&gt;Node10</title>
<g id="a_edge20_Node000013_Node000010"><a xlink:title=" ">
<path fill="none" stroke="#63b8ff" d="M365.18,-58.05C414.29,-49.56 508.43,-33.25 588.5,-19.25 592.36,-18.58 596.39,-17.87 600.41,-17.16"/>
<polygon fill="#63b8ff" stroke="#63b8ff" points="600.83,-20.64 610.07,-15.46 599.62,-13.75 600.83,-20.64"/>
</a>
</g>
</g>
<!-- Node14 -->
<g id="Node000014" class="node">
<title>Node14</title>
<g id="a_Node000014"><a xlink:title=" ">
<polygon fill="#e0e0e0" stroke="#999999" points="335.88,-19.25 277.12,-19.25 277.12,0 335.88,0 335.88,-19.25"/>
<text text-anchor="middle" x="306.5" y="-5.75" font-family="Helvetica,sans-Serif" font-size="10.00">stdexcept</text>
</a>
</g>
</g>
<!-- Node13&#45;&gt;Node14 -->
<g id="edge19_Node000013_Node000014" class="edge">
<title>Node13&#45;&gt;Node14</title>
<g id="a_edge19_Node000013_Node000014"><a xlink:title=" ">
<path fill="none" stroke="#63b8ff" d="M327.37,-55.08C324.17,-48.26 319.61,-38.56 315.57,-29.95"/>
<polygon fill="#63b8ff" stroke="#63b8ff" points="318.78,-28.54 311.36,-20.98 312.44,-31.52 318.78,-28.54"/>
</a>
</g>
</g>
<!-- Node15&#45;&gt;Node2 -->
<g id="edge22_Node000015_Node000002" class="edge">
<title>Node15&#45;&gt;Node2</title>
<g id="a_edge22_Node000015_Node000002"><a xlink:title=" ">
<path fill="none" stroke="#63b8ff" d="M326.01,-110.11C342.41,-102.98 362.78,-91.38 374.5,-74.5 383.38,-61.72 386.17,-44.17 386.86,-30.7"/>
<polygon fill="#63b8ff" stroke="#63b8ff" points="390.36,-30.88 386.99,-20.84 383.36,-30.79 390.36,-30.88"/>
</a>
</g>
</g>
<!-- Node15&#45;&gt;Node3 -->
<g id="edge23_Node000015_Node000003" class="edge">
<title>Node15&#45;&gt;Node3</title>
<g id="a_edge23_Node000015_Node000003"><a xlink:title=" ">
<path fill="none" stroke="#63b8ff" d="M272.23,-113.33C239.58,-106.17 184.56,-92.67 139.5,-74.5 105.4,-60.75 68.5,-39.68 45.21,-25.54"/>
<polygon fill="#63b8ff" stroke="#63b8ff" points="47.16,-22.63 36.81,-20.37 43.49,-28.59 47.16,-22.63"/>
</a>
</g>
</g>
<!-- Node15&#45;&gt;Node4 -->
<g id="edge24_Node000015_Node000004" class="edge">
<title>Node15&#45;&gt;Node4</title>
<g id="a_edge24_Node000015_Node000004"><a xlink:title=" ">
<path fill="none" stroke="#63b8ff" d="M294.85,-110.25C283.63,-92.6 258.32,-52.8 243.31,-29.2"/>
<polygon fill="#63b8ff" stroke="#63b8ff" points="246.36,-27.46 238.04,-20.9 240.45,-31.22 246.36,-27.46"/>
</a>
</g>
</g>
<!-- Node15&#45;&gt;Node5 -->
<g id="edge25_Node000015_Node000005" class="edge">
<title>Node15&#45;&gt;Node5</title>
<g id="a_edge25_Node000015_Node000005"><a xlink:title=" ">
<path fill="none" stroke="#63b8ff" d="M272.31,-118.18C239.57,-115.56 186.05,-106.29 154.5,-74.5 143.02,-62.93 138.42,-44.75 136.61,-30.74"/>
<polygon fill="#63b8ff" stroke="#63b8ff" points="140.1,-30.52 135.74,-20.86 133.13,-31.13 140.1,-30.52"/>
</a>
</g>
</g>
<!-- Node15&#45;&gt;Node7 -->
<g id="edge26_Node000015_Node000007" class="edge">
<title>Node15&#45;&gt;Node7</title>
<g id="a_edge26_Node000015_Node000007"><a xlink:title=" ">
<path fill="none" stroke="#63b8ff" d="M323.89,-110.16C343.17,-102.22 370.77,-89.58 392.5,-74.5 412.21,-60.82 431.72,-41.37 444.56,-27.54"/>
<polygon fill="#63b8ff" stroke="#63b8ff" points="446.82,-30.25 450.95,-20.49 441.64,-25.55 446.82,-30.25"/>
</a>
</g>
</g>
<!-- Node15&#45;&gt;Node12 -->
<g id="edge29_Node000015_Node000012" class="edge">
<title>Node15&#45;&gt;Node12</title>
<g id="a_edge29_Node000015_Node000012"><a xlink:title=" ">
<path fill="none" stroke="#63b8ff" d="M328.85,-110.92C360.87,-101.66 413.06,-86.55 448.08,-76.42"/>
<polygon fill="#63b8ff" stroke="#63b8ff" points="448.71,-79.88 457.34,-73.73 446.76,-73.15 448.71,-79.88"/>
</a>
</g>
</g>
<!-- Node15&#45;&gt;Node13 -->
<g id="edge30_Node000015_Node000013" class="edge">
<title>Node15&#45;&gt;Node13</title>
<g id="a_edge30_Node000015_Node000013"><a xlink:title=" ">
<path fill="none" stroke="#63b8ff" d="M305.62,-110.33C309.68,-103.36 315.49,-93.37 320.59,-84.62"/>
<polygon fill="#63b8ff" stroke="#63b8ff" points="323.5,-86.57 325.51,-76.17 317.45,-83.05 323.5,-86.57"/>
</a>
</g>
</g>
<!-- Node15&#45;&gt;Node14 -->
<g id="edge28_Node000015_Node000014" class="edge">
<title>Node15&#45;&gt;Node14</title>
<g id="a_edge28_Node000015_Node000014"><a xlink:title=" ">
<path fill="none" stroke="#63b8ff" d="M296.9,-110.02C292.46,-97.61 285.92,-74.73 289.5,-55.25 291.07,-46.7 294.21,-37.66 297.37,-29.97"/>
<polygon fill="#63b8ff" stroke="#63b8ff" points="300.51,-31.52 301.36,-20.96 294.11,-28.68 300.51,-31.52"/>
</a>
</g>
</g>
<!-- Node16 -->
<g id="Node000016" class="node">
<title>Node16</title>
<g id="a_Node000016"><a xlink:title=" ">
<polygon fill="#e0e0e0" stroke="#999999" points="203.5,-74.5 163.5,-74.5 163.5,-55.25 203.5,-55.25 203.5,-74.5"/>
<text text-anchor="middle" x="183.5" y="-61" font-family="Helvetica,sans-Serif" font-size="10.00">string</text>
</a>
</g>
</g>
<!-- Node15&#45;&gt;Node16 -->
<g id="edge27_Node000015_Node000016" class="edge">
<title>Node15&#45;&gt;Node16</title>
<g id="a_edge27_Node000015_Node000016"><a xlink:title=" ">
<path fill="none" stroke="#63b8ff" d="M280.65,-110.09C262.33,-101.75 234.85,-89.25 213.79,-79.66"/>
<polygon fill="#63b8ff" stroke="#63b8ff" points="215.37,-76.54 204.82,-75.58 212.47,-82.91 215.37,-76.54"/>
</a>
</g>
</g>
</g>
</svg>
