<?xml version="1.0" encoding="UTF-8" standalone="no"?>
<!DOCTYPE svg PUBLIC "-//W3C//DTD SVG 1.1//EN"
 "http://www.w3.org/Graphics/SVG/1.1/DTD/svg11.dtd">
<!-- Generated by graphviz version 12.2.1 (20241206.2353)
 -->
<!-- Title: Rule Pages: 1 -->
<svg width="137pt" height="634pt"
 viewBox="0.00 0.00 137.00 634.00" xmlns="http://www.w3.org/2000/svg" xmlns:xlink="http://www.w3.org/1999/xlink">
<g id="graph0" class="graph" transform="scale(1 1) rotate(0) translate(4 630)">
<title>Rule</title>
<!-- Node1 -->
<g id="Node000001" class="node">
<title>Node1</title>
<g id="a_Node000001"><a xlink:title="Represents an association rule with methods for support, confidence, and validation.">
<polygon fill="#999999" stroke="none" points="129,-293.75 0,-293.75 0,0 129,0 129,-293.75"/>
<text text-anchor="start" x="54.38" y="-280.25" font-family="Helvetica,sans-Serif" font-size="10.00">Rule</text>
<text text-anchor="start" x="5.5" y="-265" font-family="Helvetica,sans-Serif" font-size="10.00">&#45;</text>
<text text-anchor="start" x="14" y="-265" font-family="Helvetica,sans-Serif" font-size="10.00">support</text>
<text text-anchor="start" x="5.5" y="-249.75" font-family="Helvetica,sans-Serif" font-size="10.00">&#45;</text>
<text text-anchor="start" x="14" y="-249.75" font-family="Helvetica,sans-Serif" font-size="10.00">confidence</text>
<text text-anchor="start" x="5.5" y="-234.5" font-family="Helvetica,sans-Serif" font-size="10.00">&#45;</text>
<text text-anchor="start" x="14" y="-234.5" font-family="Helvetica,sans-Serif" font-size="10.00">sequences_with_rule</text>
<text text-anchor="start" x="4" y="-219.25" font-family="Helvetica,sans-Serif" font-size="10.00">+</text>
<text text-anchor="start" x="14" y="-219.25" font-family="Helvetica,sans-Serif" font-size="10.00">Rule()</text>
<text text-anchor="start" x="4" y="-204" font-family="Helvetica,sans-Serif" font-size="10.00">+</text>
<text text-anchor="start" x="14" y="-204" font-family="Helvetica,sans-Serif" font-size="10.00">toString()</text>
<text text-anchor="start" x="4" y="-188.75" font-family="Helvetica,sans-Serif" font-size="10.00">+</text>
<text text-anchor="start" x="14" y="-188.75" font-family="Helvetica,sans-Serif" font-size="10.00">hash()</text>
<text text-anchor="start" x="4" y="-173.5" font-family="Helvetica,sans-Serif" font-size="10.00">+</text>
<text text-anchor="start" x="14" y="-173.5" font-family="Helvetica,sans-Serif" font-size="10.00">findSequencesWithRule()</text>
<text text-anchor="start" x="4" y="-158.25" font-family="Helvetica,sans-Serif" font-size="10.00">+</text>
<text text-anchor="start" x="14" y="-158.25" font-family="Helvetica,sans-Serif" font-size="10.00">computeSupport()</text>
<text text-anchor="start" x="4" y="-143" font-family="Helvetica,sans-Serif" font-size="10.00">+</text>
<text text-anchor="start" x="14" y="-143" font-family="Helvetica,sans-Serif" font-size="10.00">computeConfidence()</text>
<text text-anchor="start" x="4" y="-127.75" font-family="Helvetica,sans-Serif" font-size="10.00">+</text>
<text text-anchor="start" x="14" y="-127.75" font-family="Helvetica,sans-Serif" font-size="10.00">isFrequent()</text>
<text text-anchor="start" x="4" y="-112.5" font-family="Helvetica,sans-Serif" font-size="10.00">+</text>
<text text-anchor="start" x="14" y="-112.5" font-family="Helvetica,sans-Serif" font-size="10.00">isValid()</text>
<text text-anchor="start" x="4" y="-97.25" font-family="Helvetica,sans-Serif" font-size="10.00">+</text>
<text text-anchor="start" x="14" y="-97.25" font-family="Helvetica,sans-Serif" font-size="10.00">printRule()</text>
<text text-anchor="start" x="4" y="-82" font-family="Helvetica,sans-Serif" font-size="10.00">+</text>
<text text-anchor="start" x="14" y="-82" font-family="Helvetica,sans-Serif" font-size="10.00">getSupport()</text>
<text text-anchor="start" x="4" y="-66.75" font-family="Helvetica,sans-Serif" font-size="10.00">+</text>
<text text-anchor="start" x="14" y="-66.75" font-family="Helvetica,sans-Serif" font-size="10.00">getConfidence()</text>
<text text-anchor="start" x="4" y="-51.5" font-family="Helvetica,sans-Serif" font-size="10.00">+</text>
<text text-anchor="start" x="14" y="-51.5" font-family="Helvetica,sans-Serif" font-size="10.00">getSequencesWithRule()</text>
<text text-anchor="start" x="4" y="-36.25" font-family="Helvetica,sans-Serif" font-size="10.00">+</text>
<text text-anchor="start" x="14" y="-36.25" font-family="Helvetica,sans-Serif" font-size="10.00">getAntecedent()</text>
<text text-anchor="start" x="4" y="-21" font-family="Helvetica,sans-Serif" font-size="10.00">+</text>
<text text-anchor="start" x="14" y="-21" font-family="Helvetica,sans-Serif" font-size="10.00">getConsequent()</text>
<text text-anchor="start" x="4" y="-5.75" font-family="Helvetica,sans-Serif" font-size="10.00">+</text>
<text text-anchor="start" x="14" y="-5.75" font-family="Helvetica,sans-Serif" font-size="10.00">operator&lt;()</text>
<polygon fill="#666666" stroke="#666666" points="0,-276.5 0,-276.5 129,-276.5 129,-276.5 0,-276.5"/>
<polygon fill="#666666" stroke="#666666" points="0,-230.75 0,-230.75 12,-230.75 12,-230.75 0,-230.75"/>
<polygon fill="#666666" stroke="#666666" points="12,-230.75 12,-230.75 129,-230.75 129,-230.75 12,-230.75"/>
<polygon fill="none" stroke="#666666" points="0,0 0,-293.75 129,-293.75 129,0 0,0"/>
</a>
</g>
</g>
<!-- Node2 -->
<g id="Node000002" class="node">
<title>Node2</title>
<g id="a_Node000002"><a xlink:href="classItemset.html" target="_top" xlink:title="Represents a set of items with additional functionality for sequence analysis.">
<polygon fill="white" stroke="none" points="123,-539.25 6,-539.25 6,-352.25 123,-352.25 123,-539.25"/>
<text text-anchor="start" x="48" y="-525.75" font-family="Helvetica,sans-Serif" font-size="10.00">Itemset</text>
<text text-anchor="start" x="11.5" y="-510.5" font-family="Helvetica,sans-Serif" font-size="10.00">&#45;</text>
<text text-anchor="start" x="20" y="-510.5" font-family="Helvetica,sans-Serif" font-size="10.00">occurrences</text>
<text text-anchor="start" x="10" y="-495.25" font-family="Helvetica,sans-Serif" font-size="10.00">+</text>
<text text-anchor="start" x="20" y="-495.25" font-family="Helvetica,sans-Serif" font-size="10.00">Itemset()</text>
<text text-anchor="start" x="10" y="-480" font-family="Helvetica,sans-Serif" font-size="10.00">+</text>
<text text-anchor="start" x="20" y="-480" font-family="Helvetica,sans-Serif" font-size="10.00">Itemset()</text>
<text text-anchor="start" x="10" y="-464.75" font-family="Helvetica,sans-Serif" font-size="10.00">+</text>
<text text-anchor="start" x="20" y="-464.75" font-family="Helvetica,sans-Serif" font-size="10.00">hash()</text>
<text text-anchor="start" x="10" y="-449.5" font-family="Helvetica,sans-Serif" font-size="10.00">+</text>
<text text-anchor="start" x="20" y="-449.5" font-family="Helvetica,sans-Serif" font-size="10.00">computeOccurrences()</text>
<text text-anchor="start" x="10" y="-434.25" font-family="Helvetica,sans-Serif" font-size="10.00">+</text>
<text text-anchor="start" x="20" y="-434.25" font-family="Helvetica,sans-Serif" font-size="10.00">updateOccurrences()</text>
<text text-anchor="start" x="10" y="-419" font-family="Helvetica,sans-Serif" font-size="10.00">+</text>
<text text-anchor="start" x="20" y="-419" font-family="Helvetica,sans-Serif" font-size="10.00">printOccurrences()</text>
<text text-anchor="start" x="10" y="-403.75" font-family="Helvetica,sans-Serif" font-size="10.00">+</text>
<text text-anchor="start" x="20" y="-403.75" font-family="Helvetica,sans-Serif" font-size="10.00">toString()</text>
<text text-anchor="start" x="10" y="-388.5" font-family="Helvetica,sans-Serif" font-size="10.00">+</text>
<text text-anchor="start" x="20" y="-388.5" font-family="Helvetica,sans-Serif" font-size="10.00">getOccurrences()</text>
<text text-anchor="start" x="10" y="-373.25" font-family="Helvetica,sans-Serif" font-size="10.00">+</text>
<text text-anchor="start" x="20" y="-373.25" font-family="Helvetica,sans-Serif" font-size="10.00">isSubsetOf()</text>
<text text-anchor="start" x="10" y="-358" font-family="Helvetica,sans-Serif" font-size="10.00">+</text>
<text text-anchor="start" x="20" y="-358" font-family="Helvetica,sans-Serif" font-size="10.00">toSortedVector()</text>
<polygon fill="#666666" stroke="#666666" points="6,-522 6,-522 123,-522 123,-522 6,-522"/>
<polygon fill="#666666" stroke="#666666" points="6,-506.75 6,-506.75 18,-506.75 18,-506.75 6,-506.75"/>
<polygon fill="#666666" stroke="#666666" points="18,-506.75 18,-506.75 123,-506.75 123,-506.75 18,-506.75"/>
<polygon fill="none" stroke="#666666" points="6,-352.25 6,-539.25 123,-539.25 123,-352.25 6,-352.25"/>
</a>
</g>
</g>
<!-- Node2&#45;&gt;Node1 -->
<g id="edge1_Node000001_Node000002" class="edge">
<title>Node2&#45;&gt;Node1</title>
<g id="a_edge1_Node000001_Node000002"><a xlink:title=" ">
<path fill="none" stroke="#63b8ff" d="M64.5,-352.44C64.5,-337.67 64.5,-322.03 64.5,-306.23"/>
<polygon fill="none" stroke="#63b8ff" points="64.5,-306.45 60.5,-300.45 64.5,-294.45 68.5,-300.45 64.5,-306.45"/>
</a>
</g>
<text text-anchor="middle" x="91.5" y="-324.75" font-family="Helvetica,sans-Serif" font-size="10.00" fill="grey"> &#45;antecedent</text>
<text text-anchor="middle" x="91.5" y="-313.5" font-family="Helvetica,sans-Serif" font-size="10.00" fill="grey">&#45;consequent</text>
</g>
<!-- Node3 -->
<g id="Node000003" class="node">
<title>Node3</title>
<g id="a_Node000003"><a xlink:title=" ">
<polygon fill="white" stroke="none" points="99.25,-626 29.75,-626 29.75,-576.25 99.25,-576.25 99.25,-626"/>
<text text-anchor="start" x="33.75" y="-612.5" font-family="Helvetica,sans-Serif" font-size="10.00">std::set&lt; int &gt;</text>
<text text-anchor="start" x="63" y="-597.25" font-family="Helvetica,sans-Serif" font-size="10.00"> </text>
<text text-anchor="start" x="63" y="-582" font-family="Helvetica,sans-Serif" font-size="10.00"> </text>
<polygon fill="#666666" stroke="#666666" points="29.75,-608.75 29.75,-608.75 99.25,-608.75 99.25,-608.75 29.75,-608.75"/>
<polygon fill="#666666" stroke="#666666" points="29.75,-593.5 29.75,-593.5 99.25,-593.5 99.25,-593.5 29.75,-593.5"/>
<polygon fill="none" stroke="#666666" points="29.75,-576.25 29.75,-626 99.25,-626 99.25,-576.25 29.75,-576.25"/>
</a>
</g>
</g>
<!-- Node3&#45;&gt;Node2 -->
<g id="edge2_Node000002_Node000003" class="edge">
<title>Node3&#45;&gt;Node2</title>
<g id="a_edge2_Node000002_Node000003"><a xlink:title=" ">
<path fill="none" stroke="#63b8ff" d="M64.5,-565.1C64.5,-557.11 64.5,-548.24 64.5,-539.07"/>
<polygon fill="none" stroke="#63b8ff" points="61,-564.98 64.5,-574.98 68,-564.98 61,-564.98"/>
</a>
</g>
</g>
</g>
</svg>
