<?xml version="1.0" encoding="UTF-8" standalone="no"?>
<!DOCTYPE svg PUBLIC "-//W3C//DTD SVG 1.1//EN"
 "http://www.w3.org/Graphics/SVG/1.1/DTD/svg11.dtd">
<!-- Generated by graphviz version 12.2.1 (20241206.2353)
 -->
<!-- Title: Itemset Pages: 1 -->
<svg width="125pt" height="281pt"
 viewBox="0.00 0.00 125.00 280.75" xmlns="http://www.w3.org/2000/svg" xmlns:xlink="http://www.w3.org/1999/xlink">
<g id="graph0" class="graph" transform="scale(1 1) rotate(0) translate(4 276.75)">
<title>Itemset</title>
<!-- Node1 -->
<g id="Node000001" class="node">
<title>Node1</title>
<g id="a_Node000001"><a xlink:title="Represents a set of items with additional functionality for sequence analysis.">
<polygon fill="#999999" stroke="none" points="117,-187 0,-187 0,0 117,0 117,-187"/>
<text text-anchor="start" x="42" y="-173.5" font-family="Helvetica,sans-Serif" font-size="10.00">Itemset</text>
<text text-anchor="start" x="5.5" y="-158.25" font-family="Helvetica,sans-Serif" font-size="10.00">&#45;</text>
<text text-anchor="start" x="14" y="-158.25" font-family="Helvetica,sans-Serif" font-size="10.00">occurrences</text>
<text text-anchor="start" x="4" y="-143" font-family="Helvetica,sans-Serif" font-size="10.00">+</text>
<text text-anchor="start" x="14" y="-143" font-family="Helvetica,sans-Serif" font-size="10.00">Itemset()</text>
<text text-anchor="start" x="4" y="-127.75" font-family="Helvetica,sans-Serif" font-size="10.00">+</text>
<text text-anchor="start" x="14" y="-127.75" font-family="Helvetica,sans-Serif" font-size="10.00">Itemset()</text>
<text text-anchor="start" x="4" y="-112.5" font-family="Helvetica,sans-Serif" font-size="10.00">+</text>
<text text-anchor="start" x="14" y="-112.5" font-family="Helvetica,sans-Serif" font-size="10.00">hash()</text>
<text text-anchor="start" x="4" y="-97.25" font-family="Helvetica,sans-Serif" font-size="10.00">+</text>
<text text-anchor="start" x="14" y="-97.25" font-family="Helvetica,sans-Serif" font-size="10.00">computeOccurrences()</text>
<text text-anchor="start" x="4" y="-82" font-family="Helvetica,sans-Serif" font-size="10.00">+</text>
<text text-anchor="start" x="14" y="-82" font-family="Helvetica,sans-Serif" font-size="10.00">updateOccurrences()</text>
<text text-anchor="start" x="4" y="-66.75" font-family="Helvetica,sans-Serif" font-size="10.00">+</text>
<text text-anchor="start" x="14" y="-66.75" font-family="Helvetica,sans-Serif" font-size="10.00">printOccurrences()</text>
<text text-anchor="start" x="4" y="-51.5" font-family="Helvetica,sans-Serif" font-size="10.00">+</text>
<text text-anchor="start" x="14" y="-51.5" font-family="Helvetica,sans-Serif" font-size="10.00">toString()</text>
<text text-anchor="start" x="4" y="-36.25" font-family="Helvetica,sans-Serif" font-size="10.00">+</text>
<text text-anchor="start" x="14" y="-36.25" font-family="Helvetica,sans-Serif" font-size="10.00">getOccurrences()</text>
<text text-anchor="start" x="4" y="-21" font-family="Helvetica,sans-Serif" font-size="10.00">+</text>
<text text-anchor="start" x="14" y="-21" font-family="Helvetica,sans-Serif" font-size="10.00">isSubsetOf()</text>
<text text-anchor="start" x="4" y="-5.75" font-family="Helvetica,sans-Serif" font-size="10.00">+</text>
<text text-anchor="start" x="14" y="-5.75" font-family="Helvetica,sans-Serif" font-size="10.00">toSortedVector()</text>
<polygon fill="#666666" stroke="#666666" points="0,-169.75 0,-169.75 117,-169.75 117,-169.75 0,-169.75"/>
<polygon fill="#666666" stroke="#666666" points="0,-154.5 0,-154.5 12,-154.5 12,-154.5 0,-154.5"/>
<polygon fill="#666666" stroke="#666666" points="12,-154.5 12,-154.5 117,-154.5 117,-154.5 12,-154.5"/>
<polygon fill="none" stroke="#666666" points="0,0 0,-187 117,-187 117,0 0,0"/>
</a>
</g>
</g>
<!-- Node2 -->
<g id="Node000002" class="node">
<title>Node2</title>
<g id="a_Node000002"><a xlink:title=" ">
<polygon fill="white" stroke="none" points="93.25,-272.75 23.75,-272.75 23.75,-223 93.25,-223 93.25,-272.75"/>
<text text-anchor="start" x="27.75" y="-259.25" font-family="Helvetica,sans-Serif" font-size="10.00">std::set&lt; int &gt;</text>
<text text-anchor="start" x="57" y="-244" font-family="Helvetica,sans-Serif" font-size="10.00"> </text>
<text text-anchor="start" x="57" y="-228.75" font-family="Helvetica,sans-Serif" font-size="10.00"> </text>
<polygon fill="#666666" stroke="#666666" points="23.75,-255.5 23.75,-255.5 93.25,-255.5 93.25,-255.5 23.75,-255.5"/>
<polygon fill="#666666" stroke="#666666" points="23.75,-240.25 23.75,-240.25 93.25,-240.25 93.25,-240.25 23.75,-240.25"/>
<polygon fill="none" stroke="#666666" points="23.75,-223 23.75,-272.75 93.25,-272.75 93.25,-223 23.75,-223"/>
</a>
</g>
</g>
<!-- Node2&#45;&gt;Node1 -->
<g id="edge1_Node000001_Node000002" class="edge">
<title>Node2&#45;&gt;Node1</title>
<g id="a_edge1_Node000001_Node000002"><a xlink:title=" ">
<path fill="none" stroke="#63b8ff" d="M58.5,-211.74C58.5,-204.08 58.5,-195.62 58.5,-186.87"/>
<polygon fill="none" stroke="#63b8ff" points="55,-211.55 58.5,-221.55 62,-211.55 55,-211.55"/>
</a>
</g>
</g>
</g>
</svg>
