<?xml version="1.0" encoding="UTF-8" standalone="no"?>
<!DOCTYPE svg PUBLIC "-//W3C//DTD SVG 1.1//EN"
 "http://www.w3.org/Graphics/SVG/1.1/DTD/svg11.dtd">
<!-- Generated by graphviz version 12.2.1 (20241206.2353)
 -->
<!-- Title: include/itemset.hpp Pages: 1 -->
<svg width="505pt" height="83pt"
 viewBox="0.00 0.00 505.38 82.50" xmlns="http://www.w3.org/2000/svg" xmlns:xlink="http://www.w3.org/1999/xlink">
<g id="graph0" class="graph" transform="scale(1 1) rotate(0) translate(4 78.5)">
<title>include/itemset.hpp</title>
<!-- Node1 -->
<g id="Node000001" class="node">
<title>Node1</title>
<g id="a_Node000001"><a xlink:title="Declaration of the Itemset class for handling itemsets and their occurrences.">
<polygon fill="#999999" stroke="#666666" points="278.12,-74.5 177.38,-74.5 177.38,-55.25 278.12,-55.25 278.12,-74.5"/>
<text text-anchor="middle" x="227.75" y="-61" font-family="Helvetica,sans-Serif" font-size="10.00">include/itemset.hpp</text>
</a>
</g>
</g>
<!-- Node2 -->
<g id="Node000002" class="node">
<title>Node2</title>
<g id="a_Node000002"><a xlink:title=" ">
<polygon fill="#e0e0e0" stroke="#999999" points="53.5,-19.25 0,-19.25 0,0 53.5,0 53.5,-19.25"/>
<text text-anchor="middle" x="26.75" y="-5.75" font-family="Helvetica,sans-Serif" font-size="10.00">iostream</text>
</a>
</g>
</g>
<!-- Node1&#45;&gt;Node2 -->
<g id="edge1_Node000001_Node000002" class="edge">
<title>Node1&#45;&gt;Node2</title>
<g id="a_edge1_Node000001_Node000002"><a xlink:title=" ">
<path fill="none" stroke="#63b8ff" d="M193.65,-54.84C157.92,-45.38 101.93,-30.54 64.79,-20.7"/>
<polygon fill="#63b8ff" stroke="#63b8ff" points="65.94,-17.39 55.37,-18.21 64.14,-24.15 65.94,-17.39"/>
</a>
</g>
</g>
<!-- Node3 -->
<g id="Node000003" class="node">
<title>Node3</title>
<g id="a_Node000003"><a xlink:title=" ">
<polygon fill="#e0e0e0" stroke="#999999" points="114.25,-19.25 71.25,-19.25 71.25,0 114.25,0 114.25,-19.25"/>
<text text-anchor="middle" x="92.75" y="-5.75" font-family="Helvetica,sans-Serif" font-size="10.00">vector</text>
</a>
</g>
</g>
<!-- Node1&#45;&gt;Node3 -->
<g id="edge2_Node000001_Node000003" class="edge">
<title>Node1&#45;&gt;Node3</title>
<g id="a_edge2_Node000001_Node000003"><a xlink:title=" ">
<path fill="none" stroke="#63b8ff" d="M204.85,-54.84C182.93,-46.2 149.65,-33.07 125.05,-23.36"/>
<polygon fill="#63b8ff" stroke="#63b8ff" points="126.42,-20.14 115.83,-19.73 123.85,-26.65 126.42,-20.14"/>
</a>
</g>
</g>
<!-- Node4 -->
<g id="Node000004" class="node">
<title>Node4</title>
<g id="a_Node000004"><a xlink:title=" ">
<polygon fill="#e0e0e0" stroke="#999999" points="161.5,-19.25 132,-19.25 132,0 161.5,0 161.5,-19.25"/>
<text text-anchor="middle" x="146.75" y="-5.75" font-family="Helvetica,sans-Serif" font-size="10.00">set</text>
</a>
</g>
</g>
<!-- Node1&#45;&gt;Node4 -->
<g id="edge3_Node000001_Node000004" class="edge">
<title>Node1&#45;&gt;Node4</title>
<g id="a_edge3_Node000001_Node000004"><a xlink:title=" ">
<path fill="none" stroke="#63b8ff" d="M214.01,-54.84C202.02,-46.96 184.38,-35.36 170.17,-26.02"/>
<polygon fill="#63b8ff" stroke="#63b8ff" points="172.1,-23.1 161.82,-20.53 168.26,-28.95 172.1,-23.1"/>
</a>
</g>
</g>
<!-- Node5 -->
<g id="Node000005" class="node">
<title>Node5</title>
<g id="a_Node000005"><a xlink:title=" ">
<polygon fill="#e0e0e0" stroke="#999999" points="214.12,-19.25 179.38,-19.25 179.38,0 214.12,0 214.12,-19.25"/>
<text text-anchor="middle" x="196.75" y="-5.75" font-family="Helvetica,sans-Serif" font-size="10.00">map</text>
</a>
</g>
</g>
<!-- Node1&#45;&gt;Node5 -->
<g id="edge4_Node000001_Node000005" class="edge">
<title>Node1&#45;&gt;Node5</title>
<g id="a_edge4_Node000001_Node000005"><a xlink:title=" ">
<path fill="none" stroke="#63b8ff" d="M222.63,-55.08C218.57,-48.11 212.76,-38.12 207.66,-29.37"/>
<polygon fill="#63b8ff" stroke="#63b8ff" points="210.8,-27.8 202.74,-20.92 204.75,-31.32 210.8,-27.8"/>
</a>
</g>
</g>
<!-- Node6 -->
<g id="Node000006" class="node">
<title>Node6</title>
<g id="a_Node000006"><a xlink:title=" ">
<polygon fill="#e0e0e0" stroke="#999999" points="287.62,-19.25 231.88,-19.25 231.88,0 287.62,0 287.62,-19.25"/>
<text text-anchor="middle" x="259.75" y="-5.75" font-family="Helvetica,sans-Serif" font-size="10.00">algorithm</text>
</a>
</g>
</g>
<!-- Node1&#45;&gt;Node6 -->
<g id="edge5_Node000001_Node000006" class="edge">
<title>Node1&#45;&gt;Node6</title>
<g id="a_edge5_Node000001_Node000006"><a xlink:title=" ">
<path fill="none" stroke="#63b8ff" d="M233.03,-55.08C237.22,-48.11 243.23,-38.12 248.48,-29.37"/>
<polygon fill="#63b8ff" stroke="#63b8ff" points="251.42,-31.28 253.57,-20.91 245.42,-27.68 251.42,-31.28"/>
</a>
</g>
</g>
<!-- Node7 -->
<g id="Node000007" class="node">
<title>Node7</title>
<g id="a_Node000007"><a xlink:title=" ">
<polygon fill="#e0e0e0" stroke="#999999" points="351.75,-19.25 305.75,-19.25 305.75,0 351.75,0 351.75,-19.25"/>
<text text-anchor="middle" x="328.75" y="-5.75" font-family="Helvetica,sans-Serif" font-size="10.00">iterator</text>
</a>
</g>
</g>
<!-- Node1&#45;&gt;Node7 -->
<g id="edge6_Node000001_Node000007" class="edge">
<title>Node1&#45;&gt;Node7</title>
<g id="a_edge6_Node000001_Node000007"><a xlink:title=" ">
<path fill="none" stroke="#63b8ff" d="M244.88,-54.84C260.41,-46.66 283.55,-34.46 301.59,-24.94"/>
<polygon fill="#63b8ff" stroke="#63b8ff" points="302.98,-28.17 310.19,-20.41 299.72,-21.98 302.98,-28.17"/>
</a>
</g>
</g>
<!-- Node8 -->
<g id="Node000008" class="node">
<title>Node8</title>
<g id="a_Node000008"><a xlink:title=" ">
<polygon fill="#e0e0e0" stroke="#999999" points="428.12,-19.25 369.38,-19.25 369.38,0 428.12,0 428.12,-19.25"/>
<text text-anchor="middle" x="398.75" y="-5.75" font-family="Helvetica,sans-Serif" font-size="10.00">stdexcept</text>
</a>
</g>
</g>
<!-- Node1&#45;&gt;Node8 -->
<g id="edge7_Node000001_Node000008" class="edge">
<title>Node1&#45;&gt;Node8</title>
<g id="a_edge7_Node000001_Node000008"><a xlink:title=" ">
<path fill="none" stroke="#63b8ff" d="M256.76,-54.84C284.76,-46.12 327.41,-32.84 358.65,-23.11"/>
<polygon fill="#63b8ff" stroke="#63b8ff" points="359.65,-26.47 368.15,-20.15 357.57,-19.78 359.65,-26.47"/>
</a>
</g>
</g>
<!-- Node9 -->
<g id="Node000009" class="node">
<title>Node9</title>
<g id="a_Node000009"><a xlink:title=" ">
<polygon fill="#e0e0e0" stroke="#999999" points="497.38,-19.25 446.12,-19.25 446.12,0 497.38,0 497.38,-19.25"/>
<text text-anchor="middle" x="471.75" y="-5.75" font-family="Helvetica,sans-Serif" font-size="10.00">sstream</text>
</a>
</g>
</g>
<!-- Node1&#45;&gt;Node9 -->
<g id="edge8_Node000001_Node000009" class="edge">
<title>Node1&#45;&gt;Node9</title>
<g id="a_edge8_Node000001_Node000009"><a xlink:title=" ">
<path fill="none" stroke="#63b8ff" d="M272.28,-54.79C312.25,-46.54 372.81,-33.81 434.63,-19.68"/>
<polygon fill="#63b8ff" stroke="#63b8ff" points="435.34,-23.11 444.3,-17.46 433.77,-16.29 435.34,-23.11"/>
</a>
</g>
</g>
</g>
</svg>
